Coordinates
version=1
nRows=17
nColumns=38
inDegrees=no

Units are S.I. units (second, meters, Newtons, ...)
If the header above contains a line with 'inDegrees', this indicates whether rotational values are in degrees (yes) or radians (no).

endheader
time	pelvis_tilt	pelvis_list	pelvis_rotation	pelvis_tx	pelvis_ty	pelvis_tz	hip_flexion_r	hip_adduction_r	hip_rotation_r	knee_angle_r	ankle_angle_r	subtalar_angle_r	mtp_angle_r	hip_flexion_l	hip_adduction_l	hip_rotation_l	knee_angle_l	ankle_angle_l	subtalar_angle_l	mtp_angle_l	lumbar_extension	lumbar_bending	lumbar_rotation	arm_flex_r	arm_add_r	arm_rot_r	elbow_flex_r	pro_sup_r	wrist_flex_r	wrist_dev_r	arm_flex_l	arm_add_l	arm_rot_l	elbow_flex_l	pro_sup_l	wrist_flex_l	wrist_dev_l
90	3.03366	1.43625	-1.36247	0.827912	-0.0832069	1.08257	-0.0216946	0.0416425	-0.118878	0.275364	-0.401927	0	0	0.0531056	-0.121572	-0.076954	0.921892	-0.19932	0	0	-0.240666	0.01397	0.13576	0.675812	-0.269918	0.542526	1.03037	1.5708	0	0	0.714179	-0.0037604	0.15311	0.699977	1.5708	0	0
90.01	3.01778	1.43695	-1.34405	0.826841	-0.0880736	1.0821	-0.0175916	0.0427531	-0.118451	0.271341	-0.405488	0	0	0.0398422	-0.12395	-0.0758056	0.924615	-0.199258	0	0	-0.237611	0.0177207	0.132083	0.674081	-0.271024	0.542411	1.03099	1.5708	0	0	0.710178	-0.00253135	0.150248	0.702965	1.5708	0	0
90.02	3.00097	1.43811	-1.32463	0.82568	-0.0930234	1.08158	-0.0129355	0.0437554	-0.117874	0.266984	-0.409157	0	0	0.027078	-0.126262	-0.0750095	0.92526	-0.199771	0	0	-0.234202	0.0214002	0.128375	0.67249	-0.272406	0.542184	1.03156	1.5708	0	0	0.706366	-0.00106371	0.147478	0.705846	1.5708	0	0
90.03	2.98173	1.43961	-1.30281	0.824417	-0.0980335	1.08097	-0.0081214	0.044921	-0.11713	0.261838	-0.413061	0	0	0.0146407	-0.128796	-0.0750758	0.923728	-0.200593	0	0	-0.230442	0.0252206	0.124777	0.670836	-0.274205	0.542058	1.03248	1.5708	0	0	0.702783	0.000702461	0.144831	0.708466	1.5708	0	0
90.04	2.9604	1.44123	-1.27893	0.823062	-0.103145	1.0803	-0.00295225	0.0459757	-0.115857	0.256089	-0.41791	0	0	0.00234784	-0.131368	-0.0755748	0.920132	-0.201726	0	0	-0.226653	0.0293821	0.121191	0.669388	-0.276351	0.541988	1.03385	1.5708	0	0	0.699484	0.00255855	0.142323	0.710941	1.5708	0	0
90.05	2.93938	1.44296	-1.25553	0.821657	-0.108319	1.0796	0.00283406	0.0466353	-0.115373	0.251377	-0.422788	0	0	-0.0100298	-0.133624	-0.0766938	0.914115	-0.202742	0	0	-0.222817	0.0333549	0.117832	0.667945	-0.278571	0.541565	1.03532	1.5708	0	0	0.6965	0.00435274	0.140457	0.713229	1.5708	0	0
90.06	2.91872	1.44458	-1.2327	0.820255	-0.11357	1.07887	0.00941141	0.0469549	-0.115427	0.248652	-0.427106	0	0	-0.0226521	-0.135691	-0.0786622	0.905488	-0.203164	0	0	-0.219318	0.0367646	0.114978	0.666454	-0.281175	0.540543	1.03726	1.5708	0	0	0.693846	0.00645904	0.138655	0.715798	1.5708	0	0
90.07	2.89574	1.44622	-1.20763	0.818778	-0.118952	1.07808	0.016235	0.0474317	-0.115078	0.24604	-0.430965	0	0	-0.0348433	-0.137682	-0.0811766	0.894584	-0.203018	0	0	-0.215953	0.0402058	0.112407	0.665163	-0.284275	0.539698	1.03966	1.5708	0	0	0.691639	0.00884436	0.137158	0.718235	1.5708	0	0
90.08	2.87031	1.44829	-1.18036	0.817212	-0.124452	1.07719	0.0229264	0.0480922	-0.112881	0.240829	-0.435639	0	0	-0.0465281	-0.139331	-0.0840672	0.881084	-0.202809	0	0	-0.21225	0.0436222	0.110179	0.663996	-0.287814	0.538908	1.04234	1.5708	0	0	0.689784	0.0115712	0.135788	0.720345	1.5708	0	0
90.09	2.8413	1.45087	-1.14978	0.815567	-0.130023	1.07617	0.0294753	0.0489444	-0.108682	0.232581	-0.442035	0	0	-0.0576245	-0.140735	-0.087594	0.864535	-0.203772	0	0	-0.207902	0.0472413	0.108265	0.662929	-0.291617	0.538135	1.04498	1.5708	0	0	0.68802	0.0145933	0.13449	0.72219	1.5708	0	0
90.1	2.80869	1.45355	-1.11598	0.813888	-0.135666	1.07507	0.0359994	0.0500458	-0.103515	0.223345	-0.449683	0	0	-0.0684619	-0.142026	-0.0920644	0.84457	-0.207862	0	0	-0.203349	0.0510945	0.10681	0.662029	-0.295719	0.53728	1.04762	1.5708	0	0	0.686435	0.01792	0.133188	0.723752	1.5708	0	0
90.11	2.77477	1.4559	-1.08093	0.812175	-0.141389	1.07392	0.0432334	0.0509896	-0.0999909	0.216747	-0.456345	0	0	-0.0798354	-0.143141	-0.0969659	0.820785	-0.21672	0	0	-0.199114	0.0550656	0.105146	0.661568	-0.299681	0.536745	1.0502	1.5708	0	0	0.68488	0.0210392	0.131795	0.725722	1.5708	0	0
90.12	2.73966	1.458	-1.04463	0.810397	-0.147226	1.07273	0.0513034	0.051653	-0.0981104	0.212325	-0.461808	0	0	-0.0916589	-0.143972	-0.102255	0.793375	-0.227832	0	0	-0.195443	0.0589224	0.103258	0.661601	-0.30382	0.536333	1.05323	1.5708	0	0	0.683248	0.0244388	0.129305	0.72879	1.5708	0	0
90.13	2.69972	1.46027	-1.00358	0.808517	-0.153234	1.07141	0.0603931	0.0519572	-0.0956465	0.208042	-0.467497	0	0	-0.103179	-0.144323	-0.107421	0.762771	-0.233769	0	0	-0.191547	0.0630298	0.101408	0.662432	-0.308439	0.536433	1.05609	1.5708	0	0	0.6819	0.0281825	0.126385	0.732061	1.5708	0	0
90.14	2.65564	1.46285	-0.95854	0.806555	-0.159339	1.06991	0.0691739	0.0527678	-0.0925498	0.202508	-0.472428	0	0	-0.114348	-0.144197	-0.113721	0.727782	-0.231373	0	0	-0.187074	0.0671946	0.0996285	0.663667	-0.313365	0.536948	1.05871	1.5708	0	0	0.680775	0.0322415	0.123235	0.735123	1.5708	0	0
90.15	2.61035	1.46535	-0.912513	0.804485	-0.165601	1.06835	0.077419	0.0531515	-0.0885059	0.194779	-0.477922	0	0	-0.125362	-0.143364	-0.1211	0.689405	-0.223471	0	0	-0.182878	0.0712359	0.0980468	0.665355	-0.318689	0.537506	1.06142	1.5708	0	0	0.680213	0.0366205	0.120214	0.737874	1.5708	0	0
90.16	2.56619	1.46718	-0.867477	0.802337	-0.172026	1.06682	0.0854011	0.053212	-0.0854012	0.187657	-0.484052	0	0	-0.136401	-0.141894	-0.127708	0.650022	-0.212709	0	0	-0.179811	0.0753157	0.0965611	0.667444	-0.324385	0.53761	1.06452	1.5708	0	0	0.680371	0.041362	0.117319	0.740453	1.5708	0	0
